<svg width="16" height="17" viewBox="0 0 16 17" fill="none" xmlns="http://www.w3.org/2000/svg">
<g id="SVG">
<path id="Vector" d="M0 2.25C0 2.05109 0.0790176 1.86033 0.21967 1.71967C0.360322 1.57902 0.551088 1.5 0.75 1.5H5.003C6.23 1.5 7.32 2.09 8.003 3.001C8.35212 2.53428 8.80542 2.15553 9.32677 1.89494C9.84813 1.63434 10.4231 1.49911 11.006 1.5H15.251C15.4499 1.5 15.6407 1.57902 15.7813 1.71967C15.922 1.86033 16.001 2.05109 16.001 2.25V12.75C16.001 12.9489 15.922 13.1397 15.7813 13.2803C15.6407 13.421 15.4499 13.5 15.251 13.5H10.744C10.4485 13.5 10.1559 13.5582 9.88296 13.6713C9.60997 13.7843 9.36193 13.9501 9.153 14.159L8.531 14.78C8.39038 14.9205 8.19975 14.9993 8.001 14.9993C7.80225 14.9993 7.61163 14.9205 7.471 14.78L6.849 14.159C6.64007 13.9501 6.39203 13.7843 6.11904 13.6713C5.84606 13.5582 5.55347 13.5 5.258 13.5H0.75C0.551088 13.5 0.360322 13.421 0.21967 13.2803C0.0790176 13.1397 0 12.9489 0 12.75L0 2.25ZM7.251 12.574L7.255 7.501L7.253 5.248C7.25247 4.65161 7.01518 4.07983 6.59328 3.65831C6.17138 3.23678 5.59939 3 5.003 3H1.5V12H5.257C5.96243 12 6.65355 12.1989 7.251 12.574ZM8.755 5.25L8.751 12.572C9.34813 12.1981 10.0385 11.9999 10.743 12H14.5V3H11.005C10.4083 3 9.83597 3.23706 9.41401 3.65901C8.99205 4.08097 8.755 4.65327 8.755 5.25Z" fill="#656D76"/>
</g>
</svg>
