<svg width="16" height="16" viewBox="0 0 16 16" fill="none" xmlns="http://www.w3.org/2000/svg">
<g id="Bug Antivirus Debugging">
<g id="bug-antivirus-debugging--code-bug-security-programming-secure-computer-antivirus-block-protection-malware-debugging">
<path id="Vector" d="M4 11.9994L5.48571 10.5137" stroke="#D70000" stroke-linecap="round" stroke-linejoin="round"/>
<path id="Vector_2" d="M5.14251 8H3.42822" stroke="#D70000" stroke-linecap="round" stroke-linejoin="round"/>
<path id="Vector_3" d="M11.9999 4L10.5142 5.48571" stroke="#D70000" stroke-linecap="round" stroke-linejoin="round"/>
<path id="Vector_4" d="M10.8569 8H12.5712" stroke="#D70000" stroke-linecap="round" stroke-linejoin="round"/>
<path id="Vector_5" d="M7.42822 7.42871H10.8568" stroke="#D70000" stroke-linecap="round" stroke-linejoin="round"/>
<path id="Ellipse 977" d="M0.571289 7.99986C0.571289 9.97004 1.35394 11.8595 2.74707 13.2527C4.14019 14.6458 6.02968 15.4284 7.99986 15.4284C9.97004 15.4284 11.8595 14.6458 13.2527 13.2527C14.6458 11.8595 15.4284 9.97004 15.4284 7.99986C15.4284 6.02968 14.6458 4.14019 13.2527 2.74707C11.8595 1.35394 9.97004 0.571289 7.99986 0.571289C6.02968 0.571289 4.14019 1.35394 2.74707 2.74707C1.35394 4.14019 0.571289 6.02968 0.571289 7.99986Z" stroke="#D70000" stroke-linecap="round" stroke-linejoin="round"/>
<path id="Vector_6" d="M13.2522 13.2522L2.74707 2.74707" stroke="#D70000" stroke-linecap="round" stroke-linejoin="round"/>
<path id="Vector_7" d="M5.49023 5.48969C5.79384 4.93167 6.27476 4.49076 6.85698 4.23663C7.43919 3.9825 8.0895 3.92965 8.70511 4.08643C9.32072 4.24322 9.86652 4.6007 10.2562 5.10237C10.646 5.60404 10.8574 6.22128 10.8571 6.85655V9.14226C10.8573 9.61975 10.7379 10.0897 10.5097 10.5091" stroke="#D70000" stroke-linecap="round" stroke-linejoin="round"/>
<path id="Vector_8" d="M5.14258 8V9.14286C5.14258 9.58361 5.24454 10.0184 5.4405 10.4132C5.63646 10.808 5.9211 11.1521 6.27215 11.4186C6.6232 11.6851 7.03115 11.8667 7.46408 11.9494C7.89701 12.032 8.34319 12.0133 8.76772 11.8949" stroke="#D70000" stroke-linecap="round" stroke-linejoin="round"/>
</g>
</g>
</svg>
