<svg width="16" height="16" viewBox="0 0 16 16" fill="none" xmlns="http://www.w3.org/2000/svg">
<g id="Bug">
<g id="bug--code-bug-security-programming-secure-computer">
<path id="Vector" d="M7.99979 14.2857C9.36376 14.2857 10.6719 13.7439 11.6363 12.7794C12.6008 11.8149 13.1426 10.5068 13.1426 9.14286C13.1426 7.77889 12.6008 6.47078 11.6363 5.50631C10.6719 4.54184 9.36376 4 7.99979 4C6.63582 4 5.32771 4.54184 4.36324 5.50631C3.39877 6.47078 2.85693 7.77889 2.85693 9.14286C2.85693 10.5068 3.39877 11.8149 4.36324 12.7794C5.32771 13.7439 6.63582 14.2857 7.99979 14.2857Z" stroke="#00B607" stroke-linecap="round" stroke-linejoin="round"/>
<path id="Vector_2" d="M2.857 9.14258H0.571289" stroke="#00B607" stroke-linecap="round" stroke-linejoin="round"/>
<path id="Vector_3" d="M0.571289 13.1429C1.14155 13.1446 1.70543 13.0229 2.22424 12.7861C2.74305 12.5494 3.20452 12.2033 3.577 11.7715" stroke="#00B607" stroke-linecap="round" stroke-linejoin="round"/>
<path id="Vector_4" d="M3.577 6.51402C3.20452 6.08221 2.74305 5.73608 2.22424 5.49936C1.70543 5.26264 1.14155 5.14094 0.571289 5.14259" stroke="#00B607" stroke-linecap="round" stroke-linejoin="round"/>
<path id="Vector_5" d="M13.1426 9.14258H15.4283" stroke="#00B607" stroke-linecap="round" stroke-linejoin="round"/>
<path id="Vector_6" d="M15.4286 13.1429C14.8583 13.1446 14.2944 13.0229 13.7756 12.7861C13.2568 12.5494 12.7953 12.2033 12.4229 11.7715" stroke="#00B607" stroke-linecap="round" stroke-linejoin="round"/>
<path id="Vector_7" d="M12.4229 6.51402C12.7953 6.08221 13.2568 5.73608 13.7756 5.49936C14.2944 5.26264 14.8583 5.14094 15.4286 5.14259" stroke="#00B607" stroke-linecap="round" stroke-linejoin="round"/>
<path id="Vector_8" d="M9.41699 4.19387C9.85429 3.94408 10.2178 3.58314 10.4707 3.14762C10.7236 2.7121 10.8568 2.21748 10.857 1.71387" stroke="#00B607" stroke-linecap="round" stroke-linejoin="round"/>
<path id="Vector_9" d="M5.14258 1.71387C5.14274 2.21748 5.27601 2.7121 5.5289 3.14762C5.78178 3.58314 6.14528 3.94408 6.58258 4.19387" stroke="#00B607" stroke-linecap="round" stroke-linejoin="round"/>
<path id="Vector_10" d="M2.98291 8H13.0172" stroke="#00B607" stroke-linecap="round" stroke-linejoin="round"/>
</g>
</g>
</svg>
