<svg width="32" height="32" viewBox="0 0 32 32" fill="none" xmlns="http://www.w3.org/2000/svg">
<g id="Devicon">
<path id="Vector" fill-rule="evenodd" clip-rule="evenodd" d="M27.3333 23.333L16 30.6663L4.66667 23.333L2 1.33301H30L27.3333 23.333ZM13.3173 10.7597C13.5189 10.5871 13.6437 10.3415 13.6642 10.077C13.6847 9.81243 13.5992 9.55057 13.4267 9.34901C13.2541 9.14744 13.0085 9.02269 12.744 9.00218C12.4794 8.98168 12.2176 9.06711 12.016 9.23967L7.34933 13.2397C7.23549 13.3371 7.14501 13.4589 7.08457 13.596C7.02412 13.7331 6.99527 13.8821 7.00013 14.0318C7.005 14.1816 7.04346 14.3284 7.11267 14.4613C7.18188 14.5942 7.28008 14.7098 7.4 14.7997L12.7333 18.7997C12.8421 18.8813 12.9664 18.9398 13.0986 18.9717C13.2308 19.0036 13.3681 19.0082 13.5021 18.9853C13.6362 18.9623 13.7641 18.9123 13.8782 18.8382C13.9922 18.7641 14.0899 18.6675 14.1653 18.5543L18.912 11.4343L22.4027 14.0517L18.6827 17.241C18.5819 17.3261 18.499 17.4304 18.4388 17.5477C18.3785 17.665 18.342 17.7931 18.3314 17.9245C18.3208 18.056 18.3364 18.1883 18.3771 18.3137C18.4179 18.4391 18.483 18.5553 18.5688 18.6554C18.6547 18.7556 18.7594 18.8378 18.8772 18.8972C18.9949 18.9567 19.1232 18.9923 19.2547 19.002C19.3863 19.0117 19.5184 18.9953 19.6436 18.9537C19.7687 18.9121 19.8844 18.8462 19.984 18.7597L24.6507 14.7597C24.7645 14.6622 24.855 14.5405 24.9154 14.4033C24.9759 14.2662 25.0047 14.1173 24.9999 13.9675C24.995 13.8177 24.9565 13.671 24.8873 13.5381C24.8181 13.4052 24.7199 13.2895 24.6 13.1997L19.2667 9.19967C19.1579 9.11809 19.0336 9.05955 18.9014 9.02764C18.7692 8.99572 18.6319 8.99111 18.4979 9.01407C18.3638 9.03703 18.2359 9.08709 18.1218 9.16119C18.0078 9.23528 17.9101 9.33186 17.8347 9.44501L13.088 16.565L9.59733 13.9477L13.3173 10.7597Z" fill="black"/>
</g>
</svg>
