<svg width="16" height="17" viewBox="0 0 16 17" fill="none" xmlns="http://www.w3.org/2000/svg">
<g id="SVG">
<path id="Vector" d="M8.00054 2.5C9.98154 2.5 11.6715 3.492 12.9335 4.578C14.2035 5.669 15.1205 6.923 15.5705 7.601C15.7481 7.86719 15.8429 8.18001 15.8429 8.5C15.8429 8.81999 15.7481 9.13281 15.5705 9.399C15.1205 10.077 14.2035 11.331 12.9335 12.422C11.6705 13.508 9.98154 14.5 8.00054 14.5C6.01954 14.5 4.32954 13.508 3.06754 12.422C1.79754 11.33 0.880539 10.076 0.430539 9.398C0.252966 9.13181 0.158203 8.81899 0.158203 8.499C0.158203 8.17901 0.252966 7.86619 0.430539 7.6C0.880539 6.923 1.79754 5.669 3.06754 4.578C4.33054 3.492 6.01954 2.5 8.00054 2.5ZM1.67954 8.432C1.66578 8.45201 1.65841 8.47572 1.65841 8.5C1.65841 8.52428 1.66578 8.54799 1.67954 8.568C2.09054 9.19 2.92054 10.318 4.04554 11.285C5.17654 12.258 6.52754 13 8.00054 13C9.47354 13 10.8255 12.258 11.9555 11.285C13.0795 10.318 13.9095 9.189 14.3215 8.568C14.3353 8.54799 14.3427 8.52428 14.3427 8.5C14.3427 8.47572 14.3353 8.45201 14.3215 8.432C13.9095 7.811 13.0795 6.682 11.9555 5.715C10.8245 4.742 9.47354 4 8.00054 4C6.52754 4 5.17554 4.742 4.04554 5.715C2.92154 6.682 2.09154 7.811 1.67954 8.432ZM8.00054 10.5C7.7342 10.506 7.46934 10.4588 7.22151 10.361C6.97369 10.2633 6.74788 10.117 6.55737 9.9308C6.36685 9.74458 6.21545 9.52218 6.11207 9.27666C6.00868 9.03113 5.95539 8.76742 5.95532 8.50101C5.95526 8.2346 6.00841 7.97087 6.11168 7.72529C6.21494 7.47971 6.36622 7.25723 6.55665 7.07093C6.74708 6.88462 6.97281 6.73823 7.22058 6.64036C7.46836 6.54249 7.7332 6.49511 7.99954 6.501C8.5221 6.51256 9.01937 6.72822 9.38491 7.10184C9.75044 7.47545 9.95519 7.97732 9.95532 8.50001C9.95545 9.0227 9.75096 9.52467 9.38561 9.89847C9.02026 10.2723 8.52309 10.4882 8.00054 10.5Z" fill="#656D76"/>
</g>
</svg>
