<svg width="16" height="17" viewBox="0 0 16 17" fill="none" xmlns="http://www.w3.org/2000/svg">
<g id="SVG">
<path id="Vector" d="M5 5.8723V6.7503C5 7.1643 5.336 7.5003 5.75 7.5003H10.25C10.4489 7.5003 10.6397 7.42128 10.7803 7.28063C10.921 7.13998 11 6.94921 11 6.7503V5.8723C10.4996 5.69538 10.0778 5.34725 9.80928 4.88944C9.54072 4.43163 9.44265 3.89362 9.53241 3.3705C9.62216 2.84738 9.89396 2.37282 10.2998 2.03072C10.7056 1.68861 11.2192 1.50098 11.75 1.50098C12.2808 1.50098 12.7944 1.68861 13.2002 2.03072C13.6061 2.37282 13.8778 2.84738 13.9676 3.3705C14.0574 3.89362 13.9593 4.43163 13.6907 4.88944C13.4222 5.34725 13.0004 5.69538 12.5 5.8723V6.7503C12.5 7.34703 12.263 7.91933 11.841 8.34129C11.419 8.76324 10.8467 9.0003 10.25 9.0003H8.75V11.1283C9.25069 11.3052 9.67271 11.6535 9.94146 12.1115C10.2102 12.5695 10.3084 13.1078 10.2186 13.6312C10.1289 14.1545 9.85695 14.6293 9.45096 14.9716C9.04497 15.3139 8.53104 15.5017 8 15.5017C7.46897 15.5017 6.95504 15.3139 6.54905 14.9716C6.14306 14.6293 5.87115 14.1545 5.78139 13.6312C5.69164 13.1078 5.78981 12.5695 6.05855 12.1115C6.3273 11.6535 6.74932 11.3052 7.25 11.1283V9.0003H5.75C5.15327 9.0003 4.58097 8.76324 4.15901 8.34129C3.73706 7.91933 3.5 7.34703 3.5 6.7503V5.8723C2.99959 5.69538 2.57784 5.34725 2.30928 4.88944C2.04072 4.43163 1.94265 3.89362 2.03241 3.3705C2.12216 2.84738 2.39396 2.37282 2.79976 2.03072C3.20556 1.68861 3.71924 1.50098 4.25 1.50098C4.78077 1.50098 5.29445 1.68861 5.70025 2.03072C6.10605 2.37282 6.37785 2.84738 6.4676 3.3705C6.55735 3.89362 6.45929 4.43163 6.19073 4.88944C5.92217 5.34725 5.50042 5.69538 5 5.8723ZM5 3.7503C5 3.55138 4.92099 3.36062 4.78033 3.21997C4.63968 3.07931 4.44892 3.0003 4.25 3.0003C4.05109 3.0003 3.86033 3.07931 3.71967 3.21997C3.57902 3.36062 3.5 3.55138 3.5 3.7503C3.5 3.94921 3.57902 4.13998 3.71967 4.28063C3.86033 4.42128 4.05109 4.5003 4.25 4.5003C4.44892 4.5003 4.63968 4.42128 4.78033 4.28063C4.92099 4.13998 5 3.94921 5 3.7503ZM11.75 4.5003C11.9489 4.5003 12.1397 4.42128 12.2803 4.28063C12.421 4.13998 12.5 3.94921 12.5 3.7503C12.5 3.55138 12.421 3.36062 12.2803 3.21997C12.1397 3.07931 11.9489 3.0003 11.75 3.0003C11.5511 3.0003 11.3603 3.07931 11.2197 3.21997C11.079 3.36062 11 3.55138 11 3.7503C11 3.94921 11.079 4.13998 11.2197 4.28063C11.3603 4.42128 11.5511 4.5003 11.75 4.5003ZM8.75 13.2503C8.75 13.0514 8.67099 12.8606 8.53033 12.72C8.38968 12.5793 8.19892 12.5003 8 12.5003C7.80109 12.5003 7.61033 12.5793 7.46967 12.72C7.32902 12.8606 7.25 13.0514 7.25 13.2503C7.25 13.4492 7.32902 13.64 7.46967 13.7806C7.61033 13.9213 7.80109 14.0003 8 14.0003C8.19892 14.0003 8.38968 13.9213 8.53033 13.7806C8.67099 13.64 8.75 13.4492 8.75 13.2503Z" fill="#656D76"/>
</g>
</svg>
