<svg width="16" height="17" viewBox="0 0 16 17" fill="none" xmlns="http://www.w3.org/2000/svg">
<g id="SVG">
<path id="Vector" d="M6 2.5C6.306 2.5 6.582 2.687 6.696 2.971L10 11.231L11.304 7.971C11.3598 7.83205 11.4559 7.71296 11.58 7.62903C11.704 7.5451 11.8503 7.50017 12 7.5H15.25C15.4489 7.5 15.6397 7.57902 15.7803 7.71967C15.921 7.86032 16 8.05109 16 8.25C16 8.44891 15.921 8.63968 15.7803 8.78033C15.6397 8.92098 15.4489 9 15.25 9H12.508L10.696 13.528C10.6398 13.6666 10.5436 13.7852 10.4196 13.8687C10.2956 13.9523 10.1495 13.9969 10 13.9969C9.85049 13.9969 9.70439 13.9523 9.58039 13.8687C9.4564 13.7852 9.36016 13.6666 9.304 13.528L6 5.27L4.696 8.53C4.64013 8.66884 4.54399 8.7878 4.41995 8.87155C4.29592 8.95531 4.14967 9.00005 4 9H0.75C0.551088 9 0.360322 8.92098 0.21967 8.78033C0.0790176 8.63968 0 8.44891 0 8.25C0 8.05109 0.0790176 7.86032 0.21967 7.71967C0.360322 7.57902 0.551088 7.5 0.75 7.5H3.492L5.304 2.971C5.35983 2.83205 5.45593 2.71296 5.57995 2.62903C5.70397 2.5451 5.85025 2.50017 6 2.5Z" fill="#656D76"/>
</g>
</svg>
