<svg width="20" height="20" viewBox="0 0 20 20" fill="none" xmlns="http://www.w3.org/2000/svg">
<g id="Frame" clip-path="url(#clip0_767_3534)">
<path id="Vector" d="M1.77502 11.0601C2.1387 11.9158 2.66737 12.6916 3.33085 13.343C3.99433 13.9944 4.77962 14.5088 5.64189 14.8568C6.50415 15.2047 7.42651 15.3794 8.35629 15.3709C9.28608 15.3624 10.2051 15.1708 11.0608 14.8071C11.9166 14.4434 12.6923 13.9147 13.3437 13.2513C13.9952 12.5878 14.5095 11.8025 14.8575 10.9402C15.2054 10.078 15.3801 9.1556 15.3716 8.22582C15.3631 7.29603 15.1715 6.37704 14.8078 5.52129C14.4441 4.66554 13.9155 3.8898 13.252 3.23837C12.5885 2.58694 11.8032 2.07257 10.9409 1.72462C10.0787 1.37668 9.15632 1.20198 8.22653 1.2105C7.29675 1.21902 6.37775 1.41059 5.522 1.77428C4.66626 2.13796 3.89052 2.66663 3.23909 3.33012C2.58766 3.9936 2.07329 4.77889 1.72535 5.64116C1.37741 6.50343 1.20271 7.42578 1.21123 8.35557C1.21976 9.28535 1.41133 10.2043 1.77502 11.0601Z" stroke="#9CA7BA" stroke-width="1.5" stroke-linecap="round" stroke-linejoin="round"/>
<path id="Vector_2" d="M13.2969 13.2969L18.7883 18.7891" stroke="#9CA7BA" stroke-width="1.5" stroke-linecap="round" stroke-linejoin="round"/>
</g>
<defs>
<clipPath id="clip0_767_3534">
<rect width="20" height="20" fill="white"/>
</clipPath>
</defs>
</svg>
