<svg width="16" height="17" viewBox="0 0 16 17" fill="none" xmlns="http://www.w3.org/2000/svg">
<g id="SVG">
<path id="Vector" d="M8.0009 0.75C8.14091 0.74991 8.27815 0.789014 8.39709 0.862887C8.51603 0.93676 8.61192 1.04245 8.6739 1.168L10.5559 4.983L14.7659 5.595C14.9044 5.61511 15.0344 5.67355 15.1414 5.76372C15.2484 5.85388 15.328 5.97218 15.3713 6.10523C15.4146 6.23829 15.4198 6.3808 15.3863 6.51665C15.3528 6.6525 15.282 6.77628 15.1819 6.874L12.1359 9.844L12.8549 14.036C12.8782 14.1738 12.8626 14.3154 12.8098 14.4449C12.757 14.5743 12.6691 14.6865 12.556 14.7687C12.443 14.8509 12.3092 14.8999 12.1698 14.9102C12.0304 14.9205 11.8908 14.8917 11.7669 14.827L8.0009 12.847L4.2349 14.827C4.11108 14.892 3.97156 14.9211 3.83209 14.911C3.69261 14.9009 3.55874 14.852 3.44558 14.7699C3.33242 14.6877 3.24449 14.5755 3.19171 14.446C3.13893 14.3165 3.12341 14.1749 3.1469 14.037L3.8669 9.843L0.818897 6.874C0.718463 6.77632 0.647396 6.65247 0.613749 6.51647C0.580101 6.38047 0.585219 6.23777 0.628521 6.10453C0.671824 5.97129 0.75158 5.85284 0.858753 5.76261C0.965925 5.67238 1.09623 5.61397 1.2349 5.594L5.4449 4.983L7.3279 1.168C7.38988 1.04245 7.48576 0.93676 7.6047 0.862887C7.72364 0.789014 7.86088 0.74991 8.0009 0.75ZM8.0009 3.195L6.6159 6C6.56211 6.1089 6.48268 6.20311 6.38444 6.27453C6.2862 6.34595 6.17208 6.39244 6.0519 6.41L2.9549 6.86L5.1949 9.044C5.28205 9.12886 5.34725 9.23365 5.38488 9.34933C5.42251 9.46501 5.43144 9.5881 5.4109 9.708L4.8829 12.792L7.6519 11.336C7.75953 11.2794 7.8793 11.2499 8.0009 11.2499C8.12249 11.2499 8.24227 11.2794 8.3499 11.336L11.1199 12.792L10.5899 9.708C10.5694 9.5881 10.5783 9.46501 10.6159 9.34933C10.6535 9.23365 10.7187 9.12886 10.8059 9.044L13.0459 6.861L9.9499 6.411C9.82971 6.39344 9.7156 6.34695 9.61735 6.27553C9.51911 6.20411 9.43968 6.1099 9.3859 6.001L8.0009 3.195Z" fill="#656D76"/>
</g>
</svg>
