<svg width="16" height="17" viewBox="0 0 16 17" fill="none" xmlns="http://www.w3.org/2000/svg">
<g id="SVG">
<path id="Vector" d="M8.74991 1.25V2.5H9.73491C10.0389 2.5 10.3379 2.58 10.6019 2.731L11.8919 3.467C11.9299 3.489 11.9719 3.5 12.0159 3.5H14.2499C14.4488 3.5 14.6396 3.57902 14.7802 3.71967C14.9209 3.86032 14.9999 4.05109 14.9999 4.25C14.9999 4.44891 14.9209 4.63968 14.7802 4.78033C14.6396 4.92098 14.4488 5 14.2499 5H13.8229L15.9339 9.692C15.9963 9.83081 16.015 9.98531 15.9875 10.135C15.96 10.2847 15.8876 10.4224 15.7799 10.53L15.2499 10L15.7789 10.531L15.7779 10.533L15.7759 10.535L15.7699 10.541L15.7639 10.546L15.7539 10.556L15.7089 10.596C15.4989 10.772 15.2679 10.923 15.0229 11.046C14.5559 11.28 13.8799 11.5 12.9999 11.5C12.2994 11.5083 11.6067 11.3528 10.9769 11.046C10.7316 10.9231 10.5014 10.7721 10.2909 10.596L10.2459 10.556L10.2299 10.541L10.2239 10.535L10.2199 10.531V10.53C10.1122 10.4224 10.0399 10.2847 10.0124 10.135C9.98485 9.98531 10.0035 9.83081 10.0659 9.692L12.1779 5H12.0159C11.7109 5 11.4119 4.921 11.1479 4.769L9.85791 4.033C9.82024 4.01118 9.77744 3.99979 9.73391 4H8.74991V13.5H11.2499C11.4488 13.5 11.6396 13.579 11.7802 13.7197C11.9209 13.8603 11.9999 14.0511 11.9999 14.25C11.9999 14.4489 11.9209 14.6397 11.7802 14.7803C11.6396 14.921 11.4488 15 11.2499 15H4.74991C4.55099 15 4.36023 14.921 4.21958 14.7803C4.07892 14.6397 3.99991 14.4489 3.99991 14.25C3.99991 14.0511 4.07892 13.8603 4.21958 13.7197C4.36023 13.579 4.55099 13.5 4.74991 13.5H7.24991V4H6.26591C6.22238 3.99979 6.17957 4.01118 6.14191 4.033L4.85291 4.77C4.58791 4.92 4.28891 5 3.98391 5H3.82191L5.93391 9.692C5.99629 9.83081 6.01497 9.98531 5.98746 10.135C5.95995 10.2847 5.88757 10.4224 5.77991 10.53L5.24991 10L5.77891 10.531L5.77791 10.533L5.77591 10.535L5.76991 10.541L5.75391 10.556L5.70891 10.596C5.49891 10.772 5.26791 10.923 5.02291 11.046C4.55591 11.28 3.87991 11.5 2.99991 11.5C2.29942 11.5083 1.60669 11.3528 0.976907 11.046C0.73159 10.9231 0.501381 10.7721 0.290907 10.596L0.245907 10.556L0.229907 10.541L0.223907 10.535L0.219907 10.531V10.53C0.112248 10.4224 0.0398593 10.2847 0.0123529 10.135C-0.0151535 9.98531 0.00352465 9.83081 0.0659066 9.692L2.17791 5H1.74991C1.55099 5 1.36023 4.92098 1.21958 4.78033C1.07892 4.63968 0.999907 4.44891 0.999907 4.25C0.999907 4.05109 1.07892 3.86032 1.21958 3.71967C1.36023 3.57902 1.55099 3.5 1.74991 3.5H3.98391C4.02775 3.5002 4.07087 3.48881 4.10891 3.467L5.39691 2.73C5.66191 2.58 5.96091 2.5 6.26591 2.5H7.24991V1.25C7.24991 1.05109 7.32892 0.860322 7.46958 0.71967C7.61023 0.579018 7.80099 0.5 7.99991 0.5C8.19882 0.5 8.38958 0.579018 8.53024 0.71967C8.67089 0.860322 8.74991 1.05109 8.74991 1.25ZM11.6949 9.727C11.9799 9.862 12.4129 10 12.9999 10C13.5869 10 14.0199 9.862 14.3049 9.727L12.9999 6.827L11.6949 9.727ZM1.69491 9.727C1.97991 9.862 2.41291 10 2.99991 10C3.58691 10 4.01991 9.862 4.30491 9.727L2.99991 6.827L1.69491 9.727Z" fill="#656D76"/>
</g>
</svg>
